<?xml version="1.0" encoding="utf-8"?>
<!-- Generator: Adobe Illustrator 15.0.0, SVG Export Plug-In . SVG Version: 6.00 Build 0)  -->
<!DOCTYPE svg PUBLIC "-//W3C//DTD SVG 1.1//EN" "http://www.w3.org/Graphics/SVG/1.1/DTD/svg11.dtd">
<svg version="1.1" id="Layer_1" xmlns="http://www.w3.org/2000/svg" xmlns:xlink="http://www.w3.org/1999/xlink" x="0px" y="0px"
	 width="514.475px" height="473.977px" viewBox="0 0 514.475 473.977" enable-background="new 0 0 514.475 473.977"
	 xml:space="preserve">
<radialGradient id="SVGID_1_" cx="255.4526" cy="231.6748" r="206.3505" gradientTransform="matrix(1 0 0 1.2 0 -46.335)" gradientUnits="userSpaceOnUse">
	<stop  offset="0" style="stop-color:#FFDE17"/>
	<stop  offset="1" style="stop-color:#ABA01F"/>
</radialGradient>
<path fill="url(#SVGID_1_)" stroke="#000000" stroke-width="19" stroke-miterlimit="10" d="M48.55,414.917
	C25.394,381.678,220.294,27.811,256.464,27.811S485.25,388.948,462.379,414.917C436.848,443.908,66.635,440.877,48.55,414.917z"/>
<path d="M231.943,356.149c0-14.623,12.155-23.186,26.373-23.186s25.561,8.563,25.561,23.186c0,14.219-11.343,23.186-26.373,23.186
	C243.692,379.335,231.943,370.368,231.943,356.149z M244.098,307.467c-6.018-7.507-13.969-189.321-5.687-198.392
	c6.574-7.2,32.684-7.429,38.997,0c6.221,7.32-2.027,193.208-5.687,198.392C267.738,313.108,248.418,312.855,244.098,307.467z"/>
<linearGradient id="SVGID_2_" gradientUnits="userSpaceOnUse" x1="256.4521" y1="304.9277" x2="256.4521" y2="48.4497">
	<stop  offset="0" style="stop-color:#FFFFFF"/>
	<stop  offset="0.0896" style="stop-color:#FFFFFF;stop-opacity:0.9104"/>
	<stop  offset="1" style="stop-color:#FFFFFF;stop-opacity:0"/>
</linearGradient>
<path opacity="0.32" fill="url(#SVGID_2_)" d="M128.138,231.73c50.628-93.413,109.167-183.281,127.395-183.281
	c18.633,0,78.777,95.828,129.597,192.307C432.965,331.571,78.303,323.682,128.138,231.73z"/>
</svg>
